<svg width="24" height="24" fill="none" xmlns="http://www.w3.org/2000/svg"><path fill="url(#paint0_linear)" d="M0 0h24v24H0z"/><path d="M17.333 18.4H16v-1.6a5.447 5.447 0 00-2.857-4.8A5.447 5.447 0 0016 7.2V5.6h1.333a.801.801 0 000-1.6H6.667a.801.801 0 000 1.6H8v1.6a5.447 5.447 0 002.857 4.8A5.447 5.447 0 008 16.8v1.6H6.667a.801.801 0 000 1.6h10.666a.8.8 0 000-1.6zM6.667 5.067a.267.267 0 010-.534h10.666a.267.267 0 010 .534H6.667zM8.533 7.2V5.6h6.934v1.6a4.92 4.92 0 01-2.988 4.533h-.958A4.92 4.92 0 018.533 7.2zm0 9.6a4.92 4.92 0 012.988-4.533h.958a4.92 4.92 0 012.988 4.533v1.6a.267.267 0 00-.534 0H14.4a.267.267 0 00-.533 0h-.534a.267.267 0 00-.533 0h-.533a.267.267 0 00-.534 0H11.2a.267.267 0 00-.533 0h-.534a.267.267 0 00-.533 0h-.533a.267.267 0 00-.534 0v-1.6zm8.8 2.667H6.667a.267.267 0 010-.534h10.666a.267.267 0 010 .534z" fill="#fff"/><path d="M9.333 18.133a.267.267 0 100-.533.267.267 0 000 .533zM10.4 18.133a.267.267 0 100-.533.267.267 0 000 .533zM11.467 18.133a.267.267 0 100-.533.267.267 0 000 .533zM12.533 18.133a.267.267 0 100-.533.267.267 0 000 .533zM13.6 18.133a.267.267 0 100-.533.267.267 0 000 .533zM14.667 18.133a.267.267 0 100-.533.267.267 0 000 .533zM9.867 17.6a.267.267 0 100-.533.267.267 0 000 .533zM10.933 17.6a.267.267 0 100-.533.267.267 0 000 .533zM12 13.067a.267.267 0 100-.534.267.267 0 000 .534zM10.4 10.133a.267.267 0 100-.533.267.267 0 000 .533zM11.467 10.133a.267.267 0 100-.533.267.267 0 000 .533zM12.533 10.133a.267.267 0 100-.533.267.267 0 000 .533zM13.6 10.133a.267.267 0 100-.533.267.267 0 000 .533zM13.067 9.6a.267.267 0 100-.533.267.267 0 000 .533zM13.6 9.067a.267.267 0 100-.534.267.267 0 000 .534zM10.933 9.6a.267.267 0 100-.533.267.267 0 000 .533zM12 9.6a.267.267 0 100-.533.267.267 0 000 .533zM10.4 9.067a.267.267 0 100-.534.267.267 0 000 .534zM10.933 10.667a.267.267 0 100-.534.267.267 0 000 .534zM11.467 11.2a.267.267 0 100-.533.267.267 0 000 .533zM12.533 11.2a.267.267 0 100-.533.267.267 0 000 .533zM12 10.667a.267.267 0 100-.534.267.267 0 000 .534zM13.067 10.667a.267.267 0 100-.534.267.267 0 000 .534zM12 13.867a.267.267 0 100-.534.267.267 0 000 .534zM12 14.667a.267.267 0 100-.534.267.267 0 000 .534zM12 15.467a.267.267 0 100-.534.267.267 0 000 .534zM12 16.267a.267.267 0 100-.534.267.267 0 000 .534zM12 17.067a.267.267 0 100-.534.267.267 0 000 .534zM13.067 17.6a.267.267 0 100-.533.267.267 0 000 .533zM14.133 17.6a.267.267 0 100-.533.267.267 0 000 .533z" fill="#fff"/><defs><linearGradient id="paint0_linear" x1="3.5" y1="10.5" x2="12" y2="24" gradientUnits="userSpaceOnUse"><stop stop-color="#FFA857"/><stop offset=".766" stop-color="#FFCA62" stop-opacity=".866"/><stop offset="1" stop-color="#FFD53F" stop-opacity=".73"/></linearGradient></defs></svg>